<?xml version="1.0" encoding="UTF-8"?> <svg xmlns="http://www.w3.org/2000/svg" xmlns:xlink="http://www.w3.org/1999/xlink" width="46px" height="51px" viewBox="0 0 46 51" version="1.1"><title>logo</title><defs><polygon id="path-1" points="5.07352941e-05 0.0216808824 45.989261 0.0216808824 45.989261 8.28676471 5.07352941e-05 8.28676471"></polygon><polygon id="path-3" points="5.07352941e-05 0.0781746324 45.989261 0.0781746324 45.989261 14.379693 5.07352941e-05 14.379693"></polygon><polygon id="path-5" points="3.38235294e-05 0.0510988971 45.989261 0.0510988971 45.989261 9.92494816 3.38235294e-05 9.92494816"></polygon></defs><g id="logo" stroke="none" stroke-width="1" fill="none" fill-rule="evenodd"><g id="Group-18-Copy"><path d="M44.6166853,27.9054265 C43.7163875,27.2413015 42.3585419,26.7542426 40.4399022,26.7542426 C37.001064,26.7542426 33.6506743,28.9237684 33.6506743,33.9714228 C33.6506743,38.7976176 37.001064,41.055761 40.3070603,41.055761 C43.7754096,41.055761 45.9745309,38.9156618 45.9745309,35.7868162 C45.9745309,33.8090699 44.7347294,32.4364265 42.2404978,32.4364265 L41.5172662,32.4364265 C40.2184426,32.4364265 39.2148985,33.041614 39.2148985,34.369864 C39.2148985,35.5801544 40.3070603,36.1557463 41.118825,36.1557463 C41.812461,36.1557463 42.0928581,36.2737904 42.0928581,36.5837831 C42.0928581,36.967511 41.7239279,37.2183971 40.8236301,37.2183971 C39.1557919,37.2183971 38.0194059,36.0819265 38.0194059,33.9714228 C38.0194059,31.6247463 39.5691154,30.7686728 40.7645235,30.7686728 C42.2257,30.7686728 42.4618728,31.5066176 43.4802993,31.5066176 C44.6609096,31.5066176 45.457961,30.5472978 45.457961,29.5731801 C45.457961,28.8500331 45.1332551,28.2891544 44.6166853,27.9054265" id="Fill-1" fill="#D62300"></path><path d="M32.4995074,29.2485081 L32.4995074,38.4434346 C32.4995074,39.9045265 31.6434338,41.0705081 30.0937243,41.0705081 C29.1934265,41.0705081 28.3522353,40.7162912 27.5699816,39.1960926 L25.5184154,35.2259713 C25.3708603,34.9454897 25.2675294,34.8717544 25.1199743,34.8717544 C24.9133125,34.8717544 24.8099816,35.0193096 24.8099816,35.3587287 L24.8247794,38.5762765 C24.8247794,39.9636331 24.0277279,41.0705081 22.537125,41.0705081 C21.0611507,41.0705081 20.2641838,39.9636331 20.2641838,38.5762765 L20.2641838,29.38135 C20.2641838,27.9201735 21.1202574,26.7541919 22.6699669,26.7541919 C23.5997757,26.7541919 24.4115404,27.1084088 25.1937941,28.6286074 L27.2452757,32.5988132 C27.3928309,32.8792103 27.4961618,32.9530301 27.6437169,32.9530301 C27.8503787,32.9530301 27.9537096,32.805475 27.9537096,32.4659713 L27.9389118,29.2485081 C27.9389118,27.8611515 28.7359632,26.7541919 30.2265662,26.7541919 C31.7025404,26.7541919 32.4995074,27.8611515 32.4995074,29.2485081" id="Fill-3" fill="#D62300"></path><path d="M4.84096728,38.4581732 L4.84096728,36.1114967 C4.84096728,35.9048349 4.92950037,35.7572798 5.13616213,35.7572798 C5.40184596,35.7572798 5.47558125,36.0376768 5.5494011,36.1705187 C6.0069489,37.0856143 6.77440478,38.9599452 7.68950037,39.9635739 C8.3094011,40.6424967 9.07685699,41.0705335 9.88853713,41.0705335 C11.2611805,41.0705335 12.4123643,39.8750408 12.4123643,38.5910151 C12.4123643,37.7940482 12.0729452,37.2036585 11.4235335,36.4952246 C10.5970555,35.5949268 9.62293787,34.4141474 9.26872096,33.8680665 C9.13587904,33.6614893 9.12108125,33.5286474 9.12108125,33.4696254 C9.12108125,33.3072724 9.2096989,33.1891437 9.38676507,33.0267908 C9.80000404,32.6430629 10.818346,31.683743 11.3792246,30.8129562 C11.8072614,30.1488312 11.9844121,29.5437283 11.9844121,29.0418717 C11.9844121,27.757846 10.818346,26.7542173 9.54911801,26.7542173 C8.73735331,26.7542173 7.96989743,27.2117651 7.45332757,28.0530408 C6.75960699,29.1747136 6.05125772,30.7539342 5.46086801,31.3443239 C5.31322831,31.491879 5.23949301,31.5213901 5.12136434,31.5213901 C4.92950037,31.5213901 4.84096728,31.3885482 4.84096728,31.181971 L4.84096728,29.3665776 C4.84096728,27.9201989 3.98489375,26.7542173 2.43526875,26.7542173 C0.870761397,26.7542173 0.0295702206,27.9201989 0.0295702206,29.3665776 L0.0295702206,38.4581732 C0.0295702206,39.9045518 0.870761397,41.0705335 2.43526875,41.0705335 C3.98489375,41.0705335 4.84096728,39.9045518 4.84096728,38.4581732" id="Fill-5" fill="#D62300"></path><g id="Group-9" transform="translate(0.000000, 42.539515)"><mask id="mask-2" fill="white"><use xlink:href="#path-1"></use></mask><g id="Clip-8"></g><path d="M44.7495103,0.0216808824 C45.6055838,0.0216808824 45.9893118,0.434919853 45.9893118,1.15815147 C45.9893118,2.42737941 44.8233301,4.19846397 42.5208779,5.4972875 C38.683514,7.66689779 32.1010324,8.28679853 22.994639,8.28679853 C13.8883301,8.28679853 7.30576397,7.66689779 3.4684,5.4972875 C1.16594779,4.19846397 5.07352941e-05,2.42737941 5.07352941e-05,1.15815147 C5.07352941e-05,0.434919853 0.383778676,0.0216808824 1.23976765,0.0216808824 L44.7495103,0.0216808824 Z" id="Fill-7" fill="#FF8533" mask="url(#mask-2)"></path></g><g id="Group-12" transform="translate(0.000000, 0.006426)"><mask id="mask-4" fill="white"><use xlink:href="#path-3"></use></mask><g id="Clip-11"></g><path d="M44.7495103,14.379693 L1.23976765,14.379693 C0.383778676,14.379693 5.07352941e-05,13.936943 5.07352941e-05,13.1398915 C5.07352941e-05,8.41702757 7.09910221,0.0781746324 22.994639,0.0781746324 C38.742536,0.0781746324 45.9893118,8.41702757 45.9893118,13.1398915 C45.9893118,13.936943 45.6055838,14.379693 44.7495103,14.379693" id="Fill-10" fill="#FF8533" mask="url(#mask-4)"></path></g><g id="Group-15" transform="translate(0.000000, 15.988044)"><mask id="mask-6" fill="white"><use xlink:href="#path-5"></use></mask><g id="Clip-14"></g><path d="M11.305464,9.91015037 C8.91447868,9.91015037 7.65996397,8.47848493 7.65996397,6.67788934 L7.65996397,1.70413934 C7.65996397,0.818554779 8.17653382,0.110120956 9.12105588,0.110120956 C10.0656625,0.110120956 10.5970301,0.818554779 10.5970301,1.70413934 L10.5970301,6.5155364 C10.5970301,6.86975331 10.7740963,7.28307684 11.305464,7.28307684 C11.8367471,7.28307684 12.0434088,6.86975331 12.0434088,6.5155364 L12.0434088,1.70413934 C12.0434088,0.818554779 12.5599787,0.110120956 13.5045853,0.110120956 C14.4491074,0.110120956 14.9656772,0.818554779 14.9656772,1.70413934 L14.9656772,6.67788934 C14.9656772,8.47848493 13.6964493,9.91015037 11.305464,9.91015037 L11.305464,9.91015037 Z M38.8016257,8.31613199 C38.8016257,9.20171654 39.3181956,9.91015037 40.2628022,9.91015037 C41.2073243,9.91015037 41.7238941,9.20171654 41.7238941,8.31613199 L41.7238941,6.85504007 C41.7238941,6.63366507 41.8124272,6.47131213 42.0486,6.47131213 C42.2552618,6.47131213 42.3437949,6.64837831 42.3880191,6.85504007 C42.5061478,7.50445184 42.712725,8.52279375 43.1112507,9.0393636 C43.6131074,9.7034886 44.0853684,9.91015037 44.5576294,9.91015037 C45.3250853,9.91015037 45.9892949,9.30504743 45.9892949,8.55230478 C45.9892949,8.05053272 45.7826331,7.68151801 45.5169493,7.3420989 C45.2660632,7.03210625 44.6462471,6.23513934 44.5281184,5.82190037 C44.4838941,5.67426066 44.4986074,5.57101434 44.6314493,5.45288566 C45.0889971,5.02493346 45.6203647,4.3607239 45.6203647,3.18002904 C45.6203647,1.15805846 44.0705706,0.139631985 42.1961551,0.139631985 L40.5284015,0.139631985 C39.3625044,0.139631985 38.8016257,0.818554779 38.8016257,1.73365037 L38.8016257,8.31613199 Z M30.5513059,0.774245956 C30.197089,0.493848897 29.2229713,0.0510988971 27.7617949,0.0510988971 C25.474225,0.0510988971 23.2455926,1.55649963 23.2455926,5.03964669 C23.2455926,8.3752386 25.474225,9.92494816 27.6732618,9.92494816 C29.9904272,9.92494816 31.4516037,8.4489739 31.4516037,6.23513934 C31.4516037,4.86258051 30.6251257,3.9179739 28.9720853,3.9179739 L28.4997397,3.9179739 C27.6289529,3.9179739 26.9501147,4.33121287 26.9501147,5.26102169 C26.9501147,6.08758419 27.6732618,6.48602537 28.2783647,6.48602537 C28.6620926,6.48602537 28.8834676,6.6631761 28.8834676,6.92877537 C28.8834676,7.28307684 28.5735596,7.51916507 28.0127654,7.51916507 C26.8614971,7.51916507 26.1530632,6.63366507 26.1530632,5.03964669 C26.1530632,3.41611728 27.1862029,2.82581213 27.9831699,2.82581213 C28.9572875,2.82581213 29.1196404,3.19474228 29.7985632,3.19474228 C30.5808169,3.19474228 31.1121,2.54541507 31.1121,1.86649228 C31.1121,1.36463566 30.890725,1.03992978 30.5513059,0.774245956 L30.5513059,0.774245956 Z M42.1371331,4.5083636 L41.7829162,4.5083636 C41.5320301,4.5083636 41.413986,4.3607239 41.413986,4.16885993 L41.413986,2.89963199 C41.413986,2.70768346 41.5320301,2.58963934 41.7829162,2.58963934 L42.1371331,2.58963934 C42.8603647,2.58963934 43.0817397,3.07669816 43.0817397,3.53424596 C43.0817397,3.96228272 42.8603647,4.5083636 42.1371331,4.5083636 L42.1371331,4.5083636 Z M34.9642618,6.95837096 C34.9642618,7.15023493 35.0823059,7.29779007 35.3331919,7.29779007 L36.7648574,7.29779007 C37.5323132,7.29779007 38.1374162,7.75533787 38.1374162,8.56710257 C38.1374162,9.37878272 37.5323132,9.83633051 36.7648574,9.83633051 L33.9459199,9.83633051 C32.7799382,9.83633051 32.2190596,9.15740772 32.2190596,8.24239669 L32.2190596,1.73365037 C32.2190596,0.818554779 32.7799382,0.139631985 33.9459199,0.139631985 L36.7648574,0.139631985 C37.5323132,0.139631985 38.1374162,0.597179779 38.1374162,1.40894449 C38.1374162,2.22070919 37.5323132,2.67817243 36.7648574,2.67817243 L35.3331919,2.67817243 C35.0823059,2.67817243 34.9642618,2.82581213 34.9642618,3.0176761 L34.9642618,3.44571287 C34.9642618,3.63757684 35.0823059,3.78513199 35.3331919,3.78513199 L36.3516184,3.78513199 C37.0600522,3.78513199 37.6208463,4.21316875 37.6208463,4.96582684 C37.6208463,5.71856949 37.0600522,6.14660625 36.3516184,6.14660625 L35.3331919,6.14660625 C35.0823059,6.14660625 34.9642618,6.2941614 34.9642618,6.48602537 L34.9642618,6.95837096 Z M19.2457912,4.5083636 L18.8915743,4.5083636 C18.6406882,4.5083636 18.5226441,4.3607239 18.5226441,4.16885993 L18.5226441,2.89963199 C18.5226441,2.70768346 18.6406882,2.58963934 18.8915743,2.58963934 L19.2457912,2.58963934 C19.9690228,2.58963934 20.1903978,3.07669816 20.1903978,3.53424596 C20.1903978,3.96228272 19.9690228,4.5083636 19.2457912,4.5083636 L19.2457912,4.5083636 Z M1.72680956,9.83633051 L3.80788676,9.83633051 C5.77075074,9.83633051 6.96632794,8.52279375 6.96632794,6.8845511 C6.96632794,5.6152386 6.18407426,5.03964669 6.00692353,4.89209154 C5.93310368,4.83306949 5.85936838,4.77396287 5.85936838,4.71494081 C5.85936838,4.64112096 5.88887941,4.61160993 5.9774125,4.52307684 C6.30211838,4.19837096 6.61211103,3.63757684 6.61211103,2.85532316 C6.61211103,1.0842386 5.34279853,0.139631985 3.48318088,0.139631985 L1.72680956,0.139631985 C0.560827941,0.139631985 3.38235294e-05,0.818554779 3.38235294e-05,1.73365037 L3.38235294e-05,8.24239669 C3.38235294e-05,9.15740772 0.560827941,9.83633051 1.72680956,9.83633051 L1.72680956,9.83633051 Z M2.96661103,4.02130478 C2.715725,4.02130478 2.59759632,3.87366507 2.59759632,3.6818011 L2.59759632,2.67817243 C2.59759632,2.48630846 2.715725,2.33875331 2.96661103,2.33875331 L3.30603015,2.33875331 C3.89641985,2.33875331 4.07348603,2.76679007 4.07348603,3.18002904 C4.07348603,3.57847022 3.89641985,4.02130478 3.30603015,4.02130478 L2.96661103,4.02130478 Z M2.96661103,5.76287831 L3.37985,5.76287831 C4.043975,5.76287831 4.23583897,6.24993713 4.23583897,6.69268713 C4.23583897,7.13543713 4.043975,7.62249596 3.37985,7.62249596 L2.96661103,7.62249596 C2.715725,7.62249596 2.59759632,7.47494081 2.59759632,7.28307684 L2.59759632,6.10229743 C2.59759632,5.91043346 2.715725,5.76287831 2.96661103,5.76287831 L2.96661103,5.76287831 Z M22.6256919,7.3420989 C22.3747213,7.03210625 21.7549051,6.23513934 21.6367765,5.82190037 C21.5925522,5.67426066 21.6072654,5.57101434 21.7401074,5.45288566 C22.1976551,5.02493346 22.7290228,4.3607239 22.7290228,3.18002904 C22.7290228,1.15805846 21.1793132,0.139631985 19.3048978,0.139631985 L17.6370596,0.139631985 C16.4711625,0.139631985 15.9102838,0.818554779 15.9102838,1.73365037 L15.9102838,8.31613199 C15.9102838,9.20171654 16.4268537,9.91015037 17.3714603,9.91015037 C18.3159824,9.91015037 18.8325522,9.20171654 18.8325522,8.31613199 L18.8325522,6.85504007 C18.8325522,6.63366507 18.9210853,6.47131213 19.1572581,6.47131213 C19.3639199,6.47131213 19.4524529,6.64837831 19.4967618,6.85504007 C19.6295191,7.50445184 19.8213831,8.52279375 20.2199088,9.0393636 C20.7217654,9.7034886 21.1940265,9.91015037 21.6662875,9.91015037 C22.4338279,9.91015037 23.0979529,9.30504743 23.0979529,8.55230478 C23.0979529,8.05053272 22.8913757,7.68151801 22.6256919,7.3420989 L22.6256919,7.3420989 Z" id="Fill-13" fill="#D62300" mask="url(#mask-6)"></path></g><path d="M18.5521721,29.543686 C18.5521721,27.9939765 17.6518743,26.7542596 15.9988338,26.7542596 C14.3457934,26.7542596 13.4454956,27.9939765 13.4454956,29.543686 L13.4454956,38.2810647 C13.4454956,39.8307743 14.3457934,41.0704912 15.9988338,41.0704912 C17.6518743,41.0704912 18.5521721,39.8307743 18.5521721,38.2810647 L18.5521721,29.543686 Z" id="Fill-16" fill="#D62300"></path></g></g></svg> 